<svg width="45" height="55" viewBox="0 0 45 55" fill="none" xmlns="http://www.w3.org/2000/svg">
<path d="M19.7079 27.4919L0.971275 8.75525C-0.323758 7.46022 -0.323758 5.36612 0.971275 4.08486L4.08486 0.971275C5.3799 -0.323758 7.47399 -0.323758 8.75525 0.971275L22.0362 14.2522L35.3172 0.971275C36.6122 -0.323758 38.7063 -0.323758 39.9876 0.971275L43.1287 4.07109C44.4238 5.36612 44.4238 7.46022 43.1287 8.74147L24.3921 27.4781C23.097 28.7869 21.003 28.7869 19.7079 27.4919ZM24.3921 53.9436L43.1287 35.207C44.4238 33.9119 44.4238 31.8179 43.1287 30.5366L40.0151 27.423C38.7201 26.128 36.626 26.128 35.3447 27.423L22.05 40.6902L8.76902 27.4092C7.47399 26.1142 5.3799 26.1142 4.09864 27.4092L0.971275 30.5228C-0.323758 31.8179 -0.323758 33.912 0.971275 35.1932L19.7079 53.9299C21.003 55.2387 23.097 55.2387 24.3921 53.9436Z" fill="black"/>
</svg>
